<svg width="112" height="19" viewBox="0 0 112 19" fill="none" xmlns="http://www.w3.org/2000/svg">
<path d="M22.4512 5.79688V4.10156H30.5586V5.79688H27.5234V14H25.4863V5.79688H22.4512ZM34.0449 14L31.2148 4.10156H33.457L35.125 11.0195H35.207L37.0254 4.10156H38.9531L40.7715 11.0332H40.8535L42.5215 4.10156H44.7637L41.9336 14H39.9238L38.0371 7.46484H37.9551L36.0547 14H34.0449ZM54.3203 9.05078C54.3203 12.2842 52.3174 14.1367 49.6992 14.1367C47.0605 14.1367 45.0645 12.2705 45.0645 9.05078C45.0645 5.81738 47.0605 3.96484 49.6992 3.96484C52.3174 3.96484 54.3203 5.81738 54.3203 9.05078ZM47.1562 9.05078C47.1562 11.1631 48.1611 12.3115 49.6992 12.3184C51.2236 12.3115 52.2354 11.1631 52.2285 9.05078C52.2354 6.93164 51.2236 5.79004 49.6992 5.7832C48.1611 5.79004 47.1562 6.93164 47.1562 9.05078ZM59.0234 14V4.10156H61.0742V12.3047H65.3398V14H59.0234ZM66.666 14V4.10156H73.3105V5.79688H68.7168V8.20312H72.9688V9.89844H68.7168V12.3047H73.3242V14H66.666ZM76.5645 14H74.3496L77.7812 4.10156H80.4199L83.8379 14H81.6367L80.8916 11.7168H77.3096L76.5645 14ZM77.8291 10.1172H80.3721L79.1348 6.33008H79.0664L77.8291 10.1172ZM88.4453 14H84.959V4.10156H88.4863C91.4668 4.10156 93.292 5.9541 93.2852 9.03711C93.292 12.1338 91.4668 14 88.4453 14ZM87.0098 12.2363H88.3633C90.25 12.2363 91.2344 11.2588 91.2344 9.03711C91.2344 6.83594 90.25 5.86523 88.377 5.86523H87.0098V12.2363ZM94.7754 14V4.10156H101.42V5.79688H96.8262V8.20312H101.078V9.89844H96.8262V12.3047H101.434V14H94.7754ZM103.02 14V4.10156H106.902C109.151 4.10156 110.443 5.36621 110.443 7.32812C110.443 8.68164 109.821 9.66602 108.693 10.1514L110.799 14H108.529L106.636 10.4863H105.07V14H103.02ZM105.07 8.81836H106.52C107.736 8.81836 108.331 8.31934 108.324 7.32812C108.331 6.33008 107.736 5.79004 106.52 5.7832H105.07V8.81836Z" fill="black"/>
<path d="M0 5C0 2.23858 2.23858 0 5 0H19.413V14C19.413 16.7614 17.1745 19 14.413 19H0V5Z" fill="#4367DD"/>
<rect x="4.54346" y="3.71753" width="10.3261" height="2.8913" fill="white"/>
<rect x="7.43481" y="3.71753" width="4.54348" height="11.9783" fill="white"/>
</svg>
