<svg width="22" height="22" viewBox="0 0 22 22" fill="none" xmlns="http://www.w3.org/2000/svg">
<path d="M0.93679 0.00532598C0.652216 0.0966411 0.406775 0.27436 0.237957 0.511338C0.0691379 0.748316 -0.0137792 1.03153 0.00186978 1.31771V14.4416C0.00186978 14.7897 0.146723 15.1235 0.404564 15.3696C0.662404 15.6157 1.01211 15.754 1.37675 15.754H8.25117V18.3788H5.5014C3.98903 18.3788 2.75164 19.5599 2.75164 21.0035H19.2502C19.2502 19.5599 18.0128 18.3788 16.5005 18.3788H13.7507V15.754H20.6251C20.9898 15.754 21.3395 15.6157 21.5973 15.3696C21.8551 15.1235 22 14.7897 22 14.4416V1.31771C22 0.969647 21.8551 0.635836 21.5973 0.389716C21.3395 0.143595 20.9898 0.00532598 20.6251 0.00532598L1.37675 0.00532598C1.29443 -0.00177533 1.2116 -0.00177533 1.12927 0.00532598C1.07433 0.00217341 1.01923 0.00217341 0.964288 0.00532598L0.93679 0.00532598ZM2.75164 2.6301H19.2502V13.1292H2.75164V2.6301Z" fill="white"/>
</svg>
